<svg width="33" height="37" viewBox="0 0 33 37" fill="none" xmlns="http://www.w3.org/2000/svg">
<path d="M16.6594 4.15625C16.4219 3.14687 15.4719 2.375 14.3438 2.375C13.2156 2.375 12.325 3.14687 12.0281 4.15625H10.1875V5.34375H12.0281C12.2656 6.35313 13.2156 7.125 14.3438 7.125C15.4719 7.125 16.3625 6.35313 16.6594 5.34375H26.8125V4.15625H16.6594ZM14.3438 5.9375C13.6906 5.9375 13.1562 5.40313 13.1562 4.75C13.1562 4.09687 13.6906 3.5625 14.3438 3.5625C14.9969 3.5625 15.5312 4.09687 15.5312 4.75C15.5312 5.40313 14.9969 5.9375 14.3438 5.9375ZM22.6562 7.125C21.5281 7.125 20.6375 7.89687 20.3406 8.90625H10.1875V10.0938H20.3406C20.5781 11.1031 21.5281 11.875 22.6562 11.875C23.7844 11.875 24.675 11.1031 24.9719 10.0938H26.8125V8.90625H24.9719C24.7344 7.89687 23.7844 7.125 22.6562 7.125ZM22.6562 10.6875C22.0031 10.6875 21.4688 10.1531 21.4688 9.5C21.4688 8.84688 22.0031 8.3125 22.6562 8.3125C23.3094 8.3125 23.8438 8.84688 23.8438 9.5C23.8438 10.1531 23.3094 10.6875 22.6562 10.6875ZM17.3125 11.875C16.1844 11.875 15.2938 12.6469 14.9969 13.6562H10.1875V14.8438H14.9969C15.2344 15.8531 16.1844 16.625 17.3125 16.625C18.4406 16.625 19.3313 15.8531 19.6281 14.8438H26.8125V13.6562H19.6281C19.3906 12.6469 18.4406 11.875 17.3125 11.875ZM17.3125 15.4375C16.6594 15.4375 16.125 14.9031 16.125 14.25C16.125 13.5969 16.6594 13.0625 17.3125 13.0625C17.9656 13.0625 18.5 13.5969 18.5 14.25C18.5 14.9031 17.9656 15.4375 17.3125 15.4375Z" fill="black"/>
<path d="M4.02486 31V22.2727H9.61577V23.598H5.60582V25.9673H9.23224V27.2926H5.60582V31H4.02486ZM10.9879 31V24.4545H12.5305V31H10.9879ZM11.7635 23.5256C11.5192 23.5256 11.3089 23.4446 11.1328 23.2827C10.9567 23.1179 10.8686 22.9205 10.8686 22.6903C10.8686 22.4574 10.9567 22.2599 11.1328 22.098C11.3089 21.9332 11.5192 21.8509 11.7635 21.8509C12.0107 21.8509 12.2209 21.9332 12.3942 22.098C12.5703 22.2599 12.6584 22.4574 12.6584 22.6903C12.6584 22.9205 12.5703 23.1179 12.3942 23.2827C12.2209 23.4446 12.0107 23.5256 11.7635 23.5256ZM15.6594 22.2727V31H14.1168V22.2727H15.6594ZM20.5142 24.4545V25.6477H16.7514V24.4545H20.5142ZM17.6804 22.8864H19.223V29.0312C19.223 29.2386 19.2543 29.3977 19.3168 29.5085C19.3821 29.6165 19.4673 29.6903 19.5724 29.7301C19.6776 29.7699 19.794 29.7898 19.9219 29.7898C20.0185 29.7898 20.1065 29.7827 20.1861 29.7685C20.2685 29.7543 20.331 29.7415 20.3736 29.7301L20.6335 30.9361C20.5511 30.9645 20.4332 30.9957 20.2798 31.0298C20.1293 31.0639 19.9446 31.0838 19.7259 31.0895C19.3395 31.1009 18.9915 31.0426 18.6818 30.9148C18.3722 30.7841 18.1264 30.5824 17.9446 30.3097C17.7656 30.0369 17.6776 29.696 17.6804 29.2869V22.8864ZM24.6317 31.1278C23.9755 31.1278 23.4087 30.9915 22.9315 30.7188C22.457 30.4432 22.092 30.054 21.8363 29.5511C21.5806 29.0455 21.4528 28.4503 21.4528 27.7656C21.4528 27.0923 21.5806 26.5014 21.8363 25.9929C22.0948 25.4815 22.4556 25.0838 22.9187 24.7997C23.3817 24.5128 23.9258 24.3693 24.5508 24.3693C24.9542 24.3693 25.3349 24.4347 25.6928 24.5653C26.0536 24.6932 26.3718 24.892 26.6474 25.1619C26.9258 25.4318 27.1445 25.7756 27.3036 26.1932C27.4627 26.608 27.5423 27.1023 27.5423 27.6761V28.1491H22.1772V27.1094H26.0636C26.0607 26.8139 25.9968 26.5511 25.8718 26.321C25.7468 26.0881 25.5721 25.9048 25.3477 25.7713C25.1261 25.6378 24.8675 25.571 24.5721 25.571C24.2567 25.571 23.9798 25.6477 23.7411 25.8011C23.5025 25.9517 23.3164 26.1506 23.1829 26.3977C23.0522 26.642 22.9854 26.9105 22.9826 27.2031V28.1108C22.9826 28.4915 23.0522 28.8182 23.1914 29.0909C23.3306 29.3608 23.5252 29.5682 23.7752 29.7131C24.0252 29.8551 24.3178 29.9261 24.6531 29.9261C24.8775 29.9261 25.0806 29.8949 25.2624 29.8324C25.4442 29.767 25.6019 29.6719 25.7354 29.5469C25.869 29.4219 25.9698 29.267 26.038 29.0824L27.4783 29.2443C27.3874 29.625 27.2141 29.9574 26.9585 30.2415C26.7056 30.5227 26.3817 30.7415 25.9869 30.8977C25.592 31.0511 25.1403 31.1278 24.6317 31.1278ZM28.8473 31V24.4545H30.343V25.5455H30.4112C30.5305 25.1676 30.7351 24.8764 31.0249 24.6719C31.3175 24.4645 31.6513 24.3608 32.0263 24.3608C32.1115 24.3608 32.2067 24.3651 32.3118 24.3736C32.4197 24.3793 32.5092 24.3892 32.5803 24.4034V25.8224C32.5149 25.7997 32.4112 25.7798 32.2692 25.7628C32.13 25.7429 31.995 25.733 31.8643 25.733C31.5831 25.733 31.3303 25.794 31.1058 25.9162C30.8842 26.0355 30.7095 26.2017 30.5817 26.4148C30.4538 26.6278 30.3899 26.8736 30.3899 27.152V31H28.8473Z" fill="black"/>
</svg>
