<svg width="17" height="15" viewBox="0 0 17 15" fill="none" xmlns="http://www.w3.org/2000/svg">
<path d="M6.47187 1.78125C6.23438 0.771875 5.28438 0 4.15625 0C3.02813 0 2.1375 0.771875 1.84062 1.78125H0V2.96875H1.84062C2.07812 3.97813 3.02813 4.75 4.15625 4.75C5.28438 4.75 6.175 3.97813 6.47187 2.96875H16.625V1.78125H6.47187ZM4.15625 3.5625C3.50312 3.5625 2.96875 3.02813 2.96875 2.375C2.96875 1.72187 3.50312 1.1875 4.15625 1.1875C4.80937 1.1875 5.34375 1.72187 5.34375 2.375C5.34375 3.02813 4.80937 3.5625 4.15625 3.5625ZM12.4688 4.75C11.3406 4.75 10.45 5.52187 10.1531 6.53125H0V7.71875H10.1531C10.3906 8.72812 11.3406 9.5 12.4688 9.5C13.5969 9.5 14.4875 8.72812 14.7844 7.71875H16.625V6.53125H14.7844C14.5469 5.52187 13.5969 4.75 12.4688 4.75ZM12.4688 8.3125C11.8156 8.3125 11.2812 7.77812 11.2812 7.125C11.2812 6.47188 11.8156 5.9375 12.4688 5.9375C13.1219 5.9375 13.6562 6.47188 13.6562 7.125C13.6562 7.77812 13.1219 8.3125 12.4688 8.3125ZM7.125 9.5C5.99687 9.5 5.10625 10.2719 4.80938 11.2812H0V12.4688H4.80938C5.04688 13.4781 5.99687 14.25 7.125 14.25C8.25313 14.25 9.14375 13.4781 9.44063 12.4688H16.625V11.2812H9.44063C9.20312 10.2719 8.25313 9.5 7.125 9.5ZM7.125 13.0625C6.47188 13.0625 5.9375 12.5281 5.9375 11.875C5.9375 11.2219 6.47188 10.6875 7.125 10.6875C7.77812 10.6875 8.3125 11.2219 8.3125 11.875C8.3125 12.5281 7.77812 13.0625 7.125 13.0625Z" fill="black"/>
</svg>
