<svg width="33" height="24" viewBox="0 0 33 24" fill="none" xmlns="http://www.w3.org/2000/svg">
<path d="M12.7988 24C11.8247 24 10.8904 23.6839 10.2016 23.1213C9.51274 22.5587 9.12575 21.7956 9.12575 21C9.12575 20.2044 9.51274 19.4413 10.2016 18.8787C10.8904 18.3161 11.8247 18 12.7988 18C13.773 18 14.7073 18.3161 15.3961 18.8787C16.0849 19.4413 16.4719 20.2044 16.4719 21C16.4719 21.7956 16.0849 22.5587 15.3961 23.1213C14.7073 23.6839 13.773 24 12.7988 24ZM25.6546 24C24.6805 24 23.7462 23.6839 23.0574 23.1213C22.3685 22.5587 21.9815 21.7956 21.9815 21C21.9815 20.2044 22.3685 19.4413 23.0574 18.8787C23.7462 18.3161 24.6805 18 25.6546 18C26.6288 18 27.5631 18.3161 28.2519 18.8787C28.9407 19.4413 29.3277 20.2044 29.3277 21C29.3277 21.7956 28.9407 22.5587 28.2519 23.1213C27.5631 23.6839 26.6288 24 25.6546 24ZM1.7098 2.8845C1.25133 2.87242 0.816579 2.71518 0.497493 2.44602C0.178407 2.17687 0 1.8169 0 1.44225C0 1.0676 0.178407 0.707632 0.497493 0.438476C0.816579 0.169321 1.25133 0.0120777 1.7098 0L3.82366 0C5.48022 0 6.91272 0.939 7.27268 2.259L9.57387 10.722C9.93383 12.042 11.3663 12.981 13.0229 12.981H26.819L29.4673 4.326H12.3048C11.8506 4.30907 11.422 4.14981 11.1079 3.88133C10.7938 3.61285 10.6186 3.25582 10.6186 2.8845C10.6186 2.51318 10.7938 2.15615 11.1079 1.88767C11.422 1.61919 11.8506 1.45993 12.3048 1.443H29.4673C30.0042 1.44287 30.534 1.54272 31.0166 1.73495C31.4991 1.92718 31.9216 2.20674 32.252 2.55238C32.5824 2.89801 32.812 3.30062 32.9233 3.72959C33.0346 4.15857 33.0247 4.60263 32.8943 5.028L30.246 13.68C30.0551 14.3043 29.614 14.8585 28.9931 15.2545C28.3721 15.6505 27.6068 15.8656 26.819 15.8655H13.0229C11.4155 15.8657 9.85619 15.4181 8.60236 14.5967C7.34854 13.7752 6.47523 12.6291 6.12668 11.3475L3.82366 2.8845H1.7098Z" fill="#030303"/>
</svg>
